<?xml version="1.0" standalone="no"?>
<!DOCTYPE svg PUBLIC "-//W3C//DTD SVG 20010904//EN"
 "http://www.w3.org/TR/2001/REC-SVG-20010904/DTD/svg10.dtd">
<svg version="1.0" xmlns="http://www.w3.org/2000/svg"
 width="2409.000000pt" height="2409.000000pt" viewBox="0 0 2409.000000 2409.000000"
 preserveAspectRatio="xMidYMid meet">
<metadata>
Created by potrace 1.14, written by Peter Selinger 2001-2017
</metadata>
<g transform="translate(0.000000,2409.000000) scale(0.100000,-0.100000)"
fill="#000000" stroke="none">
<path d="M9825 21898 c-4 -13 -8 -27 -10 -33 -2 -5 -41 -107 -88 -225 -91
-231 -99 -252 -102 -260 -1 -3 -9 -22 -18 -44 -9 -21 -17 -40 -17 -42 0 -2
-30 -79 -66 -171 -36 -92 -91 -231 -120 -308 -30 -77 -59 -149 -64 -160 -5
-11 -25 -63 -45 -115 -20 -52 -40 -104 -45 -115 -5 -11 -30 -74 -55 -140 -26
-66 -66 -169 -90 -230 -24 -60 -60 -153 -80 -205 -21 -52 -42 -106 -48 -120
-6 -14 -11 -27 -12 -30 -2 -9 -78 -205 -93 -240 -8 -19 -16 -40 -17 -45 -2 -9
-31 -83 -56 -140 -4 -11 -29 -74 -54 -140 -26 -66 -52 -131 -58 -145 -5 -14
-11 -27 -12 -30 -1 -3 -5 -14 -9 -25 -5 -11 -39 -101 -78 -200 -38 -99 -73
-190 -78 -202 -20 -46 -29 -70 -54 -133 -13 -36 -30 -78 -37 -95 -7 -16 -13
-32 -13 -35 -1 -6 -65 -169 -76 -195 -5 -11 -20 -49 -34 -85 -14 -36 -30 -78
-37 -95 -7 -16 -13 -35 -14 -41 -2 -6 -10 -27 -18 -45 -9 -19 -30 -72 -48
-119 -17 -47 -37 -98 -45 -115 -7 -16 -50 -124 -94 -240 -45 -115 -87 -221
-93 -235 -5 -14 -11 -27 -11 -30 -1 -5 -62 -162 -76 -195 -7 -18 -21 -53 -25
-65 -1 -3 -7 -18 -14 -35 -6 -16 -30 -77 -52 -135 -23 -58 -47 -118 -54 -135
-7 -16 -26 -64 -41 -105 -15 -41 -31 -79 -34 -85 -4 -5 -17 -39 -29 -75 -13
-36 -29 -78 -36 -95 -7 -16 -48 -120 -90 -230 -43 -110 -86 -217 -96 -237 -10
-21 -16 -38 -13 -38 2 0 -1 -10 -8 -22 -6 -13 -13 -28 -14 -33 -1 -6 -15 -44
-32 -85 -31 -78 -93 -235 -157 -400 -20 -52 -56 -144 -80 -205 -54 -137 -66
-169 -67 -175 0 -3 -5 -14 -11 -25 -6 -11 -12 -24 -13 -30 -2 -12 -60 -161
-74 -190 -5 -11 -20 -49 -34 -85 -13 -36 -30 -78 -36 -95 -7 -16 -14 -34 -16
-40 -2 -9 -148 -378 -169 -430 -5 -11 -9 -22 -9 -25 -1 -3 -8 -24 -17 -45 -9
-22 -28 -69 -42 -105 -14 -36 -39 -100 -57 -143 -17 -44 -30 -80 -28 -81 2 -1
30 -12 63 -25 111 -43 190 -73 210 -82 11 -4 52 -20 90 -34 39 -15 80 -31 93
-36 50 -21 73 -29 202 -79 74 -28 146 -56 160 -62 14 -7 27 -12 30 -13 3 -1
14 -5 25 -10 72 -29 198 -75 200 -73 1 2 18 46 39 98 21 52 44 111 52 130 17
43 36 94 35 97 0 2 13 34 29 72 16 37 57 140 91 227 33 88 69 177 79 199 9 22
23 58 30 80 7 22 18 49 23 60 6 11 11 22 12 25 0 3 8 24 17 45 9 22 53 135 98
250 44 116 85 219 90 230 5 11 29 72 54 135 25 63 51 129 57 145 7 17 13 35
15 40 1 6 10 28 20 50 10 22 19 45 20 50 1 6 20 55 42 110 22 55 65 165 96
245 31 80 61 154 66 165 5 11 30 74 55 140 25 66 50 129 55 140 5 11 29 74 55
140 25 66 52 132 61 148 8 15 12 27 9 27 -3 0 0 10 7 23 6 12 13 27 14 32 1 6
15 44 32 85 17 41 65 163 107 270 41 107 79 204 84 215 8 18 36 88 72 180 7
17 13 35 15 40 1 6 25 66 54 135 28 69 52 132 55 140 2 8 11 33 21 55 10 22
19 45 20 50 2 9 26 70 75 190 7 17 13 35 15 40 4 17 144 368 159 402 8 17 15
34 15 38 0 4 6 21 14 38 7 18 23 59 36 92 12 33 28 74 35 90 48 117 63 157 62
165 0 3 6 16 13 30 8 14 15 27 15 30 1 7 32 86 148 380 58 146 126 319 152
385 26 66 52 131 58 145 6 14 11 27 12 30 7 22 62 164 77 200 10 24 21 51 39
95 18 47 59 154 79 210 13 33 26 64 31 69 5 6 9 -2015 9 -4730 0 -2608 -3
-4744 -7 -4748 -5 -4 -8 -11 -8 -14 0 -4 -6 -20 -12 -37 -18 -44 -36 -89 -38
-95 -1 -3 -5 -14 -9 -25 -5 -11 -15 -38 -23 -60 -8 -22 -20 -51 -26 -65 -6
-14 -11 -27 -11 -30 -1 -3 -6 -18 -13 -35 -6 -16 -23 -59 -36 -95 -73 -188
-99 -257 -107 -275 -22 -52 -156 -405 -160 -420 -1 -5 -7 -19 -13 -30 -6 -11
-12 -24 -13 -30 -2 -13 -91 -239 -110 -282 -8 -17 -14 -33 -14 -36 0 -3 -5
-18 -12 -34 -6 -15 -12 -30 -13 -33 -2 -8 -32 -88 -140 -365 -13 -33 -29 -73
-36 -90 -7 -16 -13 -33 -13 -37 -1 -3 -4 -10 -8 -14 -5 -4 -8 -13 -8 -21 0 -7
-7 -30 -17 -51 -9 -20 -17 -39 -18 -42 -5 -14 -21 -54 -56 -145 -22 -55 -42
-108 -44 -117 -2 -9 -12 -36 -22 -59 l-19 -43 -98 260 c-53 142 -101 268 -106
279 -4 11 -22 56 -38 100 -17 44 -47 123 -67 175 -21 52 -38 100 -39 105 -2 6
-6 17 -9 25 -12 28 -129 335 -131 345 -2 6 -8 21 -13 35 -6 14 -70 183 -142
375 -73 193 -136 359 -141 370 -5 11 -41 106 -80 210 -40 105 -82 217 -95 250
-13 33 -40 105 -61 160 -20 55 -41 111 -47 125 -6 14 -11 27 -12 30 -4 11 -36
96 -56 148 -5 12 -43 113 -85 225 -41 111 -79 206 -84 211 -8 8 -35 1 -95 -25
-11 -4 -72 -27 -135 -49 -63 -23 -124 -46 -135 -50 -24 -10 -118 -44 -125 -46
-3 0 -18 -6 -35 -13 -16 -7 -34 -14 -40 -15 -10 -3 -26 -9 -80 -29 -16 -7 -32
-12 -35 -13 -3 0 -12 -4 -20 -7 -28 -12 -265 -99 -275 -101 -5 -1 -26 -9 -45
-18 -19 -8 -46 -18 -60 -21 -59 -16 -58 -29 25 -222 7 -16 20 -52 29 -78 9
-27 23 -62 31 -78 9 -16 16 -32 16 -36 1 -5 6 -19 11 -33 6 -14 11 -29 12 -35
2 -5 8 -21 13 -35 14 -31 57 -143 59 -150 0 -3 5 -16 11 -30 6 -14 18 -42 26
-63 9 -20 14 -37 11 -37 -3 0 2 -12 10 -27 9 -16 35 -80 59 -143 24 -63 48
-124 52 -135 5 -11 9 -22 10 -25 1 -3 5 -14 9 -25 99 -253 121 -311 122 -315
0 -3 6 -18 14 -35 7 -16 20 -51 30 -78 9 -26 20 -50 23 -54 4 -3 7 -13 7 -20
0 -8 9 -33 19 -56 10 -23 44 -109 76 -192 31 -82 60 -159 65 -170 6 -11 44
-110 86 -220 43 -110 95 -245 116 -300 22 -55 40 -104 42 -110 1 -5 7 -19 13
-30 6 -11 11 -23 12 -28 0 -4 8 -23 16 -43 8 -20 15 -40 15 -45 0 -5 4 -17 9
-27 9 -16 60 -147 76 -192 1 -3 5 -14 10 -25 34 -86 67 -170 88 -225 14 -36
46 -118 71 -183 25 -64 46 -121 46 -125 1 -4 9 -25 20 -47 11 -22 19 -43 20
-47 0 -4 24 -69 54 -145 30 -76 93 -239 141 -363 47 -124 90 -234 95 -245 5
-11 20 -49 33 -85 14 -36 28 -74 32 -85 5 -11 9 -22 10 -25 1 -3 7 -18 14 -35
7 -16 22 -55 33 -85 11 -30 24 -66 30 -80 6 -14 14 -34 19 -45 9 -22 53 -137
54 -145 1 -3 6 -16 12 -30 6 -14 23 -56 38 -95 15 -38 31 -79 35 -90 5 -11 20
-49 33 -85 14 -36 51 -130 82 -210 31 -80 70 -181 87 -225 16 -44 33 -89 38
-100 4 -11 15 -40 25 -65 10 -25 21 -54 25 -65 9 -21 22 -57 25 -65 1 -3 6
-16 12 -30 6 -14 25 -63 43 -110 18 -47 62 -159 97 -250 36 -91 66 -169 68
-175 1 -5 7 -21 12 -35 18 -42 124 -314 127 -325 1 -5 10 -27 19 -49 9 -21 17
-41 17 -44 0 -3 31 -84 69 -181 69 -176 83 -212 86 -221 1 -3 7 -18 14 -35 6
-16 25 -66 42 -110 17 -44 35 -89 40 -100 11 -25 73 -188 74 -195 1 -3 9 -22
18 -44 9 -21 17 -44 17 -50 0 -7 5 -17 12 -24 7 -7 9 -12 5 -12 -4 0 -2 -10 5
-22 7 -13 13 -25 14 -28 1 -7 14 -38 35 -87 10 -24 15 -43 12 -43 -3 0 -1 -6
4 -13 6 -6 25 -51 43 -99 18 -49 34 -88 35 -88 2 0 66 23 142 51 76 28 145 52
153 54 8 2 32 11 54 20 54 23 467 175 488 180 9 2 25 8 35 13 10 5 47 20 83
32 36 13 76 27 90 33 14 6 27 11 30 12 33 9 50 19 50 31 0 7 -24 76 -54 151
-55 140 -63 162 -64 176 -1 4 -8 20 -16 35 -8 15 -52 122 -97 237 -44 116 -88
225 -96 243 -8 18 -16 41 -18 51 -2 10 -8 27 -14 37 -5 11 -30 71 -55 134 -24
63 -74 192 -111 285 -37 94 -94 240 -127 325 -33 85 -67 170 -75 189 -8 18
-16 39 -18 45 -1 6 -7 22 -12 36 -14 33 -97 244 -98 250 -1 3 -6 16 -12 30
-16 37 -75 188 -128 325 -25 66 -50 129 -55 140 -5 11 -20 49 -33 85 -14 36
-28 74 -32 85 -5 11 -9 22 -10 25 -1 3 -7 19 -14 35 -41 95 -42 102 -19 153
12 26 22 49 23 52 1 3 7 18 13 33 7 16 12 30 12 32 0 3 14 34 30 70 17 36 30
68 30 71 0 3 7 20 15 37 8 18 55 131 105 252 116 281 188 452 206 492 8 17 14
34 14 38 0 4 13 35 29 68 15 34 32 73 36 87 4 14 11 30 15 35 3 6 14 31 24 57
l17 47 62 -43 c34 -23 161 -109 282 -191 121 -82 315 -212 430 -290 116 -78
248 -168 295 -199 47 -32 94 -64 105 -72 70 -50 259 -174 266 -174 4 0 9 -3
11 -8 2 -4 59 -45 128 -91 553 -373 614 -415 618 -423 2 -5 7 -8 12 -8 11 0
324 -212 328 -222 2 -4 9 -8 16 -8 7 0 21 -8 32 -17 11 -10 28 -22 37 -28 54
-32 313 -210 315 -217 2 -4 8 -8 13 -8 5 0 37 -19 72 -43 62 -44 439 -298 617
-418 52 -35 100 -67 105 -71 6 -5 64 -45 130 -89 66 -44 211 -141 321 -215
l201 -136 52 21 c28 12 74 31 103 42 29 12 57 22 63 24 5 1 21 7 35 12 63 27
236 95 245 97 6 2 24 8 40 15 17 7 134 53 260 102 127 50 252 99 280 111 27
11 54 21 60 23 5 1 21 7 35 12 14 6 62 25 108 43 45 18 82 36 82 40 0 4 -10
12 -22 17 -13 6 -32 18 -43 27 -11 9 -69 48 -130 88 -60 39 -112 74 -115 77
-3 4 -31 22 -62 41 -32 19 -58 38 -58 42 0 4 -5 8 -11 8 -9 0 -83 47 -114 72
-5 5 -59 41 -120 80 -60 39 -114 75 -120 79 -5 5 -80 55 -165 111 -85 56 -156
106 -158 110 -2 4 -8 8 -12 8 -8 0 -99 57 -110 69 -3 4 -17 12 -32 20 -16 8
-28 18 -28 23 0 4 -4 8 -9 8 -11 0 -285 182 -289 192 -2 4 -7 8 -12 8 -11 0
-224 142 -228 152 -2 4 -7 8 -12 8 -8 0 -120 72 -145 92 -5 5 -59 41 -120 80
-60 39 -112 74 -115 77 -3 4 -31 22 -62 41 -32 19 -58 38 -58 42 0 4 -5 8 -11
8 -9 0 -83 47 -114 72 -5 5 -59 41 -120 80 -60 39 -114 75 -120 80 -5 4 -59
40 -120 80 -60 39 -112 74 -115 77 -3 4 -31 22 -62 41 -32 19 -58 38 -58 42 0
4 -4 8 -10 8 -11 0 -194 121 -198 132 -2 5 -9 8 -16 8 -7 0 -21 8 -32 18 -11
9 -32 24 -46 32 -14 8 -36 23 -49 32 -13 10 -94 64 -179 120 -85 56 -156 105
-158 110 -2 4 -9 8 -16 8 -7 0 -21 8 -32 17 -11 10 -32 25 -46 33 -14 8 -36
23 -49 33 -13 9 -73 49 -134 89 -60 39 -112 74 -115 77 -3 4 -31 22 -62 41
-32 19 -58 38 -58 42 0 4 -5 8 -11 8 -9 0 -83 47 -114 72 -5 5 -59 41 -120 80
-60 39 -114 75 -120 80 -5 4 -109 73 -230 153 -121 80 -227 151 -235 158 -8 7
-36 25 -62 40 -26 15 -53 33 -60 40 -7 6 -25 18 -39 25 -47 25 -82 61 -72 74
5 7 15 31 22 53 8 22 21 56 29 75 9 19 17 40 18 45 1 6 40 107 87 225 46 118
110 283 142 365 32 83 62 156 68 163 5 6 7 12 4 12 -4 0 3 21 14 48 12 26 38
92 59 147 21 55 44 114 51 130 7 17 13 32 13 35 1 3 11 30 23 60 28 70 41 104
40 110 0 3 10 24 22 47 11 23 21 47 21 54 0 6 7 27 16 47 29 66 33 75 79 197
57 150 93 241 111 282 8 17 14 34 14 37 0 7 104 275 125 321 7 17 25 64 40
105 14 41 31 80 37 87 6 7 8 13 5 13 -5 0 19 66 54 145 5 11 45 115 89 230 44
116 84 219 89 230 5 11 19 47 31 80 13 33 29 74 36 90 12 29 32 80 90 233 14
37 46 117 70 177 25 61 47 118 49 129 2 10 9 24 16 32 6 8 9 14 6 14 -4 0 3
21 14 48 12 26 34 81 49 122 15 41 34 89 41 105 7 17 13 32 13 35 3 14 88 227
96 242 6 10 10 22 10 27 0 5 8 26 17 47 9 22 18 44 19 50 1 6 9 27 17 45 8 19
27 63 40 99 14 36 31 79 38 95 7 17 13 35 14 41 2 6 10 27 18 45 16 36 30 71
31 79 1 3 21 55 44 115 24 61 66 169 94 240 28 72 57 143 64 159 8 16 14 33
14 38 0 5 7 25 17 46 9 20 17 39 17 42 2 11 109 287 124 320 9 19 17 40 18 45
2 6 42 109 89 230 47 121 104 267 127 325 22 58 45 116 51 130 6 14 11 27 11
30 1 3 11 30 23 60 36 89 46 114 49 125 2 10 132 341 149 380 4 11 9 22 10 25
1 7 32 86 90 235 26 66 62 161 81 210 20 50 39 99 44 110 5 11 37 92 71 180
33 88 66 171 72 185 6 14 11 27 12 30 1 3 5 14 9 25 5 11 26 67 48 125 22 58
46 119 54 135 7 17 25 62 39 102 14 39 33 89 42 110 9 21 17 40 18 43 0 3 15
42 33 88 89 227 125 319 135 342 5 14 11 30 13 35 3 12 130 341 143 370 11 25
28 68 84 215 25 63 93 239 153 390 59 151 122 313 140 360 17 47 38 99 44 115
7 17 14 35 15 41 2 6 9 27 18 45 15 36 31 76 71 179 13 36 30 79 37 95 7 17
13 33 13 37 1 3 4 10 9 14 21 21 4 43 -50 64 -32 13 -67 28 -78 34 -11 6 -23
11 -27 12 -5 1 -10 3 -13 4 -3 1 -8 3 -12 5 -10 2 -53 20 -106 43 -50 23 -80
35 -87 36 -5 1 -39 15 -310 127 -133 55 -161 66 -172 68 -4 1 -34 13 -65 28
-57 25 -373 153 -378 153 -1 0 -8 -15 -15 -32 -7 -18 -18 -46 -25 -63 -7 -16
-19 -48 -28 -70 -8 -22 -45 -116 -82 -210 -36 -93 -78 -199 -91 -235 -14 -36
-31 -76 -37 -90 -5 -14 -11 -29 -13 -35 -1 -5 -41 -109 -89 -230 -47 -121
-107 -272 -131 -335 -25 -63 -49 -124 -54 -135 -5 -11 -25 -63 -45 -115 -20
-52 -41 -103 -46 -114 -6 -10 -12 -26 -14 -35 -3 -14 -141 -372 -164 -426 -5
-11 -21 -51 -36 -90 -15 -38 -31 -79 -36 -90 -12 -27 -32 -79 -33 -85 -3 -9
-59 -155 -74 -190 -9 -19 -16 -39 -18 -45 -2 -11 -80 -209 -113 -287 -6 -13
-31 -77 -56 -143 -26 -66 -62 -159 -81 -206 -19 -48 -34 -89 -34 -93 0 -3 -9
-25 -19 -49 -11 -23 -56 -136 -100 -252 -45 -115 -86 -219 -91 -230 -5 -11
-21 -51 -35 -90 -14 -38 -31 -81 -37 -95 -7 -14 -12 -27 -13 -30 -1 -3 -5 -14
-10 -25 -4 -11 -38 -101 -77 -200 -38 -99 -73 -190 -78 -202 -18 -42 -28 -67
-85 -213 -31 -80 -71 -183 -89 -230 -19 -47 -48 -123 -66 -170 -18 -47 -41
-102 -51 -122 -10 -21 -16 -38 -13 -38 2 0 -1 -10 -8 -22 -6 -13 -13 -27 -14
-33 -4 -20 -135 -351 -150 -377 -8 -16 -13 -28 -10 -28 5 0 -4 -22 -39 -105
-17 -41 -36 -89 -90 -227 -95 -247 -237 -610 -258 -658 -5 -14 -11 -29 -13
-35 -2 -8 -83 -214 -114 -292 -5 -13 -11 -23 -12 -23 -2 0 -3 1838 -3 4085 0
3622 -2 4086 -15 4091 -8 4 -20 8 -25 9 -6 2 -33 12 -60 23 -28 11 -81 32
-120 47 -38 14 -84 33 -102 41 -17 8 -34 14 -37 14 -4 0 -95 34 -204 77 -108
42 -213 82 -232 89 -19 7 -111 43 -205 79 -93 37 -192 75 -220 85 -27 10 -72
27 -100 38 -112 44 -217 82 -225 82 -4 0 -11 -10 -15 -22z"/>
<path d="M18366 19992 c-3 -5 -117 -78 -255 -163 -138 -85 -270 -166 -293
-181 -24 -15 -64 -39 -89 -54 l-46 -27 174 -279 c95 -154 173 -282 173 -284 0
-3 5 -10 10 -17 8 -9 167 -264 228 -364 4 -7 28 -45 53 -85 26 -40 140 -224
254 -408 114 -184 266 -429 338 -545 71 -115 170 -275 220 -355 87 -141 114
-184 211 -340 176 -282 386 -622 386 -625 0 -3 13 -24 29 -47 56 -81 411 -658
411 -667 0 -5 4 -11 8 -13 4 -1 29 -37 54 -78 25 -41 91 -149 147 -238 55 -90
101 -167 101 -172 0 -5 3 -10 8 -12 4 -1 52 -75 106 -163 54 -88 113 -182 131
-210 33 -52 73 -117 90 -147 6 -10 35 -57 65 -105 30 -48 60 -95 65 -104 27
-44 93 -151 201 -324 65 -104 174 -281 243 -392 248 -399 527 -848 571 -920
245 -396 328 -529 545 -878 211 -340 245 -396 245 -406 0 -6 -15 -31 -32 -57
-18 -26 -38 -56 -44 -67 -29 -54 -500 -800 -506 -803 -5 -2 -8 -8 -8 -13 0 -5
-16 -35 -36 -66 -20 -32 -55 -87 -78 -123 -22 -36 -46 -75 -53 -85 -6 -11 -51
-83 -100 -160 -48 -77 -92 -148 -98 -157 -20 -35 -139 -223 -145 -228 -3 -3
-14 -21 -24 -40 -11 -19 -38 -64 -61 -100 -23 -36 -71 -111 -106 -168 -35 -56
-75 -120 -89 -142 -14 -22 -108 -173 -210 -336 -102 -162 -209 -334 -239 -382
-29 -48 -69 -112 -89 -142 -39 -61 -43 -68 -164 -260 -313 -498 -384 -612
-393 -628 -21 -36 -59 -97 -64 -102 -4 -3 -15 -21 -25 -40 -11 -19 -43 -71
-71 -115 -28 -44 -65 -102 -82 -130 -17 -27 -124 -198 -238 -380 -114 -181
-228 -364 -253 -405 -25 -41 -49 -76 -54 -78 -4 -2 -8 -7 -8 -12 0 -7 -120
-205 -205 -335 -17 -27 -96 -153 -175 -280 -79 -126 -157 -252 -175 -280 -17
-27 -45 -72 -63 -100 -17 -27 -35 -55 -40 -60 -5 -6 -11 -15 -13 -21 -3 -8
-76 -126 -169 -274 -14 -22 -106 -169 -204 -327 -99 -159 -184 -289 -188 -291
-4 -2 -8 -8 -8 -14 0 -5 -16 -35 -37 -66 -20 -31 -46 -73 -58 -92 -22 -35 -32
-51 -140 -225 -33 -53 -74 -117 -90 -143 -104 -163 -225 -361 -224 -368 0 -5
88 -63 196 -129 107 -66 201 -124 207 -130 6 -5 27 -19 46 -29 19 -11 67 -40
105 -64 155 -99 147 -95 156 -81 11 19 142 228 317 506 79 126 149 237 155
248 21 34 107 169 117 185 6 8 18 29 28 46 36 65 167 269 174 272 5 2 8 8 8
13 0 7 134 225 324 524 17 27 36 57 41 66 30 52 140 225 146 229 3 3 13 19 22
35 8 17 63 107 122 200 59 94 191 304 294 468 102 163 232 370 288 460 56 89
121 193 144 232 24 38 46 74 51 80 4 5 122 192 260 415 139 223 255 407 258
410 3 3 14 21 24 40 11 19 40 67 65 105 25 39 51 79 57 90 11 20 384 617 430
688 45 69 161 255 402 642 86 138 159 251 164 253 4 2 8 8 8 12 0 12 182 304
192 308 5 2 8 8 8 13 0 6 20 41 45 79 25 38 45 73 45 79 0 5 4 11 8 13 4 2 17
19 28 38 42 70 666 1065 681 1085 5 6 17 26 27 45 11 19 43 71 71 115 147 229
218 350 236 400 40 115 27 238 -37 351 -21 38 -41 74 -43 79 -2 6 -7 12 -10
15 -7 6 -27 37 -239 380 -79 129 -155 251 -167 270 -12 19 -64 103 -115 185
-51 83 -121 195 -155 250 -237 381 -295 477 -295 485 0 6 -3 10 -7 10 -5 0
-27 33 -51 73 -24 39 -68 110 -98 157 -29 47 -59 96 -66 110 -6 14 -17 32 -24
40 -21 26 -114 181 -114 190 0 5 -4 10 -8 12 -10 4 -222 346 -222 358 0 5 -4
10 -8 12 -10 4 -72 105 -72 117 0 5 -4 11 -8 13 -5 2 -28 35 -51 73 -23 39
-76 124 -117 190 -41 66 -78 127 -83 135 -30 49 -482 776 -516 830 -23 36 -56
90 -75 120 -18 30 -44 73 -58 95 -14 22 -35 56 -47 75 -97 153 -305 493 -305
496 0 3 -5 10 -11 17 -6 7 -37 55 -69 107 -33 52 -85 137 -117 189 -32 52 -71
116 -88 142 -16 27 -53 85 -81 131 -28 46 -137 222 -243 391 -105 170 -191
311 -191 313 0 3 -5 10 -10 17 -6 7 -25 35 -42 62 -17 28 -44 69 -60 93 -15
24 -28 45 -28 47 0 2 -38 65 -85 139 -47 75 -85 140 -85 145 0 5 -4 11 -8 13
-5 2 -29 37 -54 78 -25 41 -63 103 -84 137 -22 34 -90 144 -152 245 -62 101
-147 236 -188 301 -41 66 -74 120 -74 122 0 2 -17 30 -38 62 -21 32 -47 74
-58 93 -10 19 -23 39 -27 45 -7 8 -87 138 -246 395 -40 64 -141 226 -174 278
-37 57 -58 74 -71 54z"/>
<path d="M1617 19843 c-3 -7 -2 -16820 2 -16833 0 -3 187 -5 414 -5 l412 0 3
8423 2 8422 -414 0 c-228 0 -417 -3 -419 -7z"/>
</g>
</svg>
